<?xml version="1.0" encoding="UTF-8" standalone="no"?>
<!-- Created with Inkscape (http://www.inkscape.org/) -->

<svg
   width="15.457821mm"
   height="16.933336mm"
   viewBox="0 0 15.457821 16.933336"
   version="1.1"
   id="svg1176"
   xmlns:inkscape="http://www.inkscape.org/namespaces/inkscape"
   xmlns:sodipodi="http://sodipodi.sourceforge.net/DTD/sodipodi-0.dtd"
   xmlns="http://www.w3.org/2000/svg"
   xmlns:svg="http://www.w3.org/2000/svg">
  <sodipodi:namedview
     id="namedview1178"
     pagecolor="#505050"
     bordercolor="#eeeeee"
     borderopacity="1"
     inkscape:showpageshadow="0"
     inkscape:pageopacity="0"
     inkscape:pagecheckerboard="0"
     inkscape:deskcolor="#505050"
     inkscape:document-units="mm"
     showgrid="false" />
  <defs
     id="defs1173" />
  <g
     inkscape:label="Vrstva 1"
     inkscape:groupmode="layer"
     id="layer1"
     transform="translate(-49.745732,-16.252546)">
    <path
       d="m 53.426157,32.878252 c -0.22249,-0.115429 -0.575297,-0.209868 -0.784017,-0.209868 -0.208718,0 -0.522005,-0.09982 -0.696185,-0.221824 -0.286258,-0.200506 -0.316697,-0.341724 -0.316697,-1.469396 0,-1.216387 -0.01056,-1.255343 -0.420549,-1.558493 -0.482398,-0.356656 -0.719066,-1.049602 -0.715131,-2.09383 0.0039,-1.025431 0.190849,-1.708393 1.080285,-3.945944 0.851583,-2.142328 1.050184,-3.178306 0.771311,-4.02333 -0.173288,-0.525054 -0.17948,-0.528484 -0.765923,-0.424602 -1.614327,0.285966 -2.102326,-0.28603 -1.248999,-1.464008 0.44435,-0.61341 1.184805,-1.042935 1.797898,-1.042935 0.526211,0 1.280427,0.78379 1.516572,1.576041 0.204804,0.687095 0.269705,4.564507 0.08993,5.370556 -0.128418,0.575637 0.0068,0.589315 1.060166,0.107132 0.427652,-0.195789 1.163231,-0.396291 1.63462,-0.445558 1.972406,-0.206155 2.824483,0.645078 3.986029,3.982112 0.836775,2.403974 1.327138,3.089179 2.210789,3.089179 0.425395,0 1.302891,-0.388071 2.019387,-0.893058 l 0.405591,-0.285863 -0.224504,0.434138 c -0.445273,0.861068 -2.262187,2.027231 -3.158485,2.027231 -0.628328,0 -1.362114,-0.53292 -1.726793,-1.254114 l -0.30876,-0.610588 -0.102107,1.440245 c -0.09158,1.291578 -0.136307,1.462666 -0.433371,1.657301 -0.301104,0.197297 -0.380426,0.19226 -0.871575,-0.05531 -0.29719,-0.149798 -0.732702,-0.365918 -0.967819,-0.480253 -0.383025,-0.186252 -0.431965,-0.285196 -0.470545,-0.951293 l -0.04312,-0.743439 h -1.041639 -1.041627 l -0.126498,1.15948 c -0.100372,0.919992 -0.186119,1.198797 -0.415113,1.349829 -0.242783,0.160127 -0.352835,0.157017 -0.693141,-0.01955 z"
       style="fill:#ccff00;stroke:#000000;stroke-width:0.342951;stroke-dasharray:none;stroke-opacity:1"
       id="path1161"
       inkscape:export-filename="dino.png"
       inkscape:export-xdpi="96.8"
       inkscape:export-ydpi="96.8" />
  </g>
</svg>
